<?xml version="1.0" standalone="no"?>
<!DOCTYPE svg PUBLIC "-//W3C//DTD SVG 20010904//EN"
 "http://www.w3.org/TR/2001/REC-SVG-20010904/DTD/svg10.dtd">
<svg version="1.0" xmlns="http://www.w3.org/2000/svg"
 width="200.000000pt" height="200.000000pt" viewBox="0 0 200.000000 200.000000"
 preserveAspectRatio="xMidYMid meet">

<g transform="translate(0.000000,200.000000) scale(0.100000,-0.100000)"
fill="#000000" stroke="none">
<path d="M102 1928 c-15 -15 -17 -370 -2 -399 10 -18 23 -19 205 -19 186 0
194 1 209 21 11 17 14 57 14 192 0 94 -4 182 -9 194 -8 23 -10 23 -207 23
-141 0 -201 -3 -210 -12z"/>
<path d="M631 1886 c-8 -9 -11 -63 -9 -167 l3 -154 165 0 165 0 3 159 c2 121
-1 161 -10 168 -7 4 -79 8 -159 8 -113 0 -149 -3 -158 -14z"/>
<path d="M1110 1881 c-5 -11 -10 -82 -10 -160 0 -114 3 -142 16 -155 13 -13
41 -16 155 -16 78 0 149 5 160 10 17 10 19 23 19 163 0 106 -4 157 -12 165 -8
8 -59 12 -165 12 -140 0 -153 -2 -163 -19z"/>
<path d="M1654 1817 c-3 -8 -4 -54 -2 -103 l3 -89 105 0 105 0 3 103 3 102
-106 0 c-79 0 -107 -3 -111 -13z"/>
<path d="M1620 1371 c-12 -23 -14 -240 -2 -258 8 -13 262 -21 281 -8 16 9 15
257 -1 273 -8 8 -54 12 -140 12 -116 0 -128 -2 -138 -19z"/>
<path d="M1230 1240 l0 -51 48 3 47 3 0 45 0 45 -47 3 -48 3 0 -51z"/>
<path d="M102 958 c-8 -8 -12 -67 -12 -199 0 -157 3 -190 16 -203 13 -13 46
-16 204 -16 186 0 190 0 204 23 11 17 14 61 14 191 0 93 -4 179 -9 192 l-9 24
-198 0 c-141 0 -201 -3 -210 -12z"/>
<path d="M632 918 c-8 -8 -12 -59 -12 -165 l0 -153 26 -10 c14 -6 85 -10 159
-10 108 0 137 3 149 16 13 13 16 41 16 155 0 78 -5 149 -10 160 -10 17 -23 19
-163 19 -106 0 -157 -4 -165 -12z"/>
<path d="M1134 897 c-2 -7 -3 -74 -2 -148 l3 -134 139 -3 c105 -2 141 1 148
10 13 21 10 262 -4 276 -18 18 -277 17 -284 -1z"/>
<path d="M1662 758 l3 -103 91 -3 c70 -2 94 1 103 12 8 9 11 45 9 103 l-3 88
-103 3 -103 3 3 -103z"/>
<path d="M106 474 c-13 -13 -16 -45 -16 -195 0 -105 4 -188 10 -200 10 -18 23
-19 200 -19 103 0 195 3 204 6 14 5 16 33 16 203 0 140 -3 200 -12 209 -8 8
-67 12 -199 12 -157 0 -190 -3 -203 -16z"/>
</g>
</svg>
